<svg xmlns="http://www.w3.org/2000/svg" xmlns:xlink="http://www.w3.org/1999/xlink" width="220" zoomAndPan="magnify" viewBox="0 0 165 67.499998" height="90" preserveAspectRatio="xMidYMid meet" version="1.0"><defs><g/><clipPath id="f4e645e2ce"><path d="M 1.796875 19 L 13 19 L 13 52.730469 L 1.796875 52.730469 Z M 1.796875 19 " clip-rule="nonzero"/></clipPath><clipPath id="e190ac01f7"><path d="M 55.125 19.257812 L 65.6875 19.257812 L 65.6875 52.269531 L 55.125 52.269531 Z M 55.125 19.257812 " clip-rule="nonzero"/></clipPath><clipPath id="fdccf87d07"><path d="M 28 11.699219 L 39 11.699219 L 39 23 L 28 23 Z M 28 11.699219 " clip-rule="nonzero"/></clipPath><clipPath id="c366638d3e"><path d="M 19.839844 31.984375 L 27.742188 31.984375 L 27.742188 39.890625 L 19.839844 39.890625 Z M 19.839844 31.984375 " clip-rule="nonzero"/></clipPath><clipPath id="8dd24ee389"><path d="M 23.792969 31.984375 C 21.609375 31.984375 19.839844 33.753906 19.839844 35.9375 C 19.839844 38.121094 21.609375 39.890625 23.792969 39.890625 C 25.972656 39.890625 27.742188 38.121094 27.742188 35.9375 C 27.742188 33.753906 25.972656 31.984375 23.792969 31.984375 Z M 23.792969 31.984375 " clip-rule="nonzero"/></clipPath><clipPath id="84d89003f7"><path d="M 19.839844 31.984375 L 27.734375 31.984375 L 27.734375 39.882812 L 19.839844 39.882812 Z M 19.839844 31.984375 " clip-rule="nonzero"/></clipPath><clipPath id="f8b178bd37"><path d="M 23.789062 31.984375 C 21.609375 31.984375 19.839844 33.753906 19.839844 35.933594 C 19.839844 38.113281 21.609375 39.882812 23.789062 39.882812 C 25.96875 39.882812 27.734375 38.113281 27.734375 35.933594 C 27.734375 33.753906 25.96875 31.984375 23.789062 31.984375 Z M 23.789062 31.984375 " clip-rule="nonzero"/></clipPath><clipPath id="4b243dede1"><path d="M 40.472656 31.984375 L 48.375 31.984375 L 48.375 39.890625 L 40.472656 39.890625 Z M 40.472656 31.984375 " clip-rule="nonzero"/></clipPath><clipPath id="94b5962f44"><path d="M 44.425781 31.984375 C 42.242188 31.984375 40.472656 33.753906 40.472656 35.9375 C 40.472656 38.121094 42.242188 39.890625 44.425781 39.890625 C 46.609375 39.890625 48.375 38.121094 48.375 35.9375 C 48.375 33.753906 46.609375 31.984375 44.425781 31.984375 Z M 44.425781 31.984375 " clip-rule="nonzero"/></clipPath><clipPath id="6a443de893"><path d="M 40.472656 31.984375 L 48.367188 31.984375 L 48.367188 39.882812 L 40.472656 39.882812 Z M 40.472656 31.984375 " clip-rule="nonzero"/></clipPath><clipPath id="c8fc4e2c81"><path d="M 44.421875 31.984375 C 42.242188 31.984375 40.472656 33.753906 40.472656 35.933594 C 40.472656 38.113281 42.242188 39.882812 44.421875 39.882812 C 46.601562 39.882812 48.367188 38.113281 48.367188 35.933594 C 48.367188 33.753906 46.601562 31.984375 44.421875 31.984375 Z M 44.421875 31.984375 " clip-rule="nonzero"/></clipPath></defs><path fill="#db2777" d="M 23.582031 30.199219 C 22.796875 30.199219 22.066406 30.347656 21.390625 30.644531 C 20.710938 30.941406 20.125 31.339844 19.625 31.84375 C 19.128906 32.347656 18.734375 32.9375 18.445312 33.613281 C 18.152344 34.292969 18.007812 35.011719 18.007812 35.773438 C 18.007812 36.535156 18.152344 37.253906 18.445312 37.933594 C 18.734375 38.609375 19.128906 39.199219 19.625 39.703125 C 20.125 40.207031 20.710938 40.605469 21.390625 40.902344 C 22.066406 41.199219 22.796875 41.347656 23.582031 41.347656 C 24.351562 41.347656 25.078125 41.199219 25.753906 40.902344 C 26.433594 40.605469 27.023438 40.203125 27.527344 39.695312 C 28.027344 39.1875 28.425781 38.597656 28.71875 37.925781 C 29.007812 37.253906 29.152344 36.535156 29.152344 35.773438 C 29.152344 35.011719 29.007812 34.292969 28.71875 33.621094 C 28.425781 32.949219 28.027344 32.359375 27.527344 31.851562 C 27.023438 31.34375 26.433594 30.941406 25.753906 30.644531 C 25.078125 30.347656 24.351562 30.199219 23.582031 30.199219 Z M 32.472656 35.773438 C 32.472656 38.25 31.605469 40.347656 29.867188 42.0625 C 28.109375 43.796875 26.015625 44.664062 23.582031 44.664062 C 21.125 44.664062 19.027344 43.796875 17.292969 42.0625 C 15.558594 40.324219 14.6875 38.230469 14.6875 35.773438 C 14.6875 33.316406 15.558594 31.222656 17.292969 29.484375 C 19.027344 27.75 21.125 26.882812 23.582031 26.882812 C 26.015625 26.882812 28.109375 27.75 29.867188 29.484375 C 30.734375 30.355469 31.382812 31.3125 31.8125 32.359375 C 32.242188 33.40625 32.460938 34.546875 32.472656 35.773438 " fill-opacity="1" fill-rule="nonzero"/><path fill="#db2777" d="M 43.902344 30.199219 C 43.121094 30.199219 42.390625 30.347656 41.710938 30.644531 C 41.035156 30.941406 40.449219 31.339844 39.949219 31.84375 C 39.453125 32.347656 39.058594 32.9375 38.765625 33.613281 C 38.476562 34.292969 38.332031 35.011719 38.332031 35.773438 C 38.332031 36.535156 38.476562 37.253906 38.765625 37.933594 C 39.058594 38.609375 39.453125 39.199219 39.949219 39.703125 C 40.449219 40.207031 41.035156 40.605469 41.710938 40.902344 C 42.390625 41.199219 43.121094 41.347656 43.902344 41.347656 C 44.675781 41.347656 45.402344 41.199219 46.078125 40.902344 C 46.757812 40.605469 47.347656 40.203125 47.847656 39.695312 C 48.351562 39.1875 48.75 38.597656 49.039062 37.925781 C 49.332031 37.253906 49.476562 36.535156 49.476562 35.773438 C 49.476562 35.011719 49.332031 34.292969 49.039062 33.621094 C 48.75 32.949219 48.351562 32.359375 47.847656 31.851562 C 47.347656 31.34375 46.757812 30.941406 46.078125 30.644531 C 45.402344 30.347656 44.675781 30.199219 43.902344 30.199219 Z M 52.796875 35.773438 C 52.796875 38.25 51.925781 40.347656 50.191406 42.0625 C 48.433594 43.796875 46.339844 44.664062 43.902344 44.664062 C 41.449219 44.664062 39.351562 43.796875 37.617188 42.0625 C 35.878906 40.324219 35.011719 38.230469 35.011719 35.773438 C 35.011719 33.316406 35.878906 31.222656 37.617188 29.484375 C 39.351562 27.75 41.449219 26.882812 43.902344 26.882812 C 46.339844 26.882812 48.433594 27.75 50.191406 29.484375 C 51.058594 30.355469 51.707031 31.3125 52.136719 32.359375 C 52.566406 33.40625 52.785156 34.546875 52.796875 35.773438 " fill-opacity="1" fill-rule="nonzero"/><g clip-path="url(#f4e645e2ce)"><path fill="#2563eb" d="M 10.6875 19.277344 C 11.164062 19.277344 11.558594 19.4375 11.871094 19.761719 C 12.183594 20.082031 12.339844 20.476562 12.339844 20.945312 C 12.339844 21.421875 12.183594 21.816406 11.871094 22.125 C 11.558594 22.4375 11.164062 22.59375 10.6875 22.59375 C 9.375 22.59375 8.71875 23.25 8.71875 24.5625 L 8.71875 32.152344 C 8.71875 33.675781 8.371094 34.882812 7.671875 35.773438 C 8.371094 36.664062 8.71875 37.871094 8.71875 39.394531 L 8.71875 46.984375 C 8.71875 48.296875 9.375 48.953125 10.6875 48.953125 C 11.164062 48.953125 11.558594 49.109375 11.871094 49.421875 C 12.183594 49.730469 12.339844 50.125 12.339844 50.601562 C 12.339844 51.078125 12.183594 51.476562 11.871094 51.792969 C 11.558594 52.113281 11.164062 52.269531 10.6875 52.269531 C 7.164062 52.269531 5.402344 50.507812 5.402344 46.984375 L 5.402344 39.394531 C 5.402344 38.082031 4.75 37.425781 3.449219 37.425781 C 2.972656 37.425781 2.578125 37.269531 2.265625 36.957031 C 1.953125 36.644531 1.796875 36.25 1.796875 35.773438 C 1.796875 35.296875 1.953125 34.902344 2.265625 34.589844 C 2.578125 34.277344 2.972656 34.121094 3.449219 34.121094 C 4.75 34.121094 5.402344 33.464844 5.402344 32.152344 L 5.402344 24.5625 C 5.402344 21.039062 7.164062 19.277344 10.6875 19.277344 " fill-opacity="1" fill-rule="nonzero"/></g><g clip-path="url(#e190ac01f7)"><path fill="#2563eb" d="M 62.082031 24.5625 L 62.082031 32.152344 C 62.082031 33.464844 62.734375 34.121094 64.035156 34.121094 C 64.511719 34.121094 64.90625 34.277344 65.21875 34.589844 C 65.53125 34.902344 65.6875 35.296875 65.6875 35.773438 C 65.6875 36.25 65.53125 36.644531 65.21875 36.957031 C 64.90625 37.269531 64.511719 37.425781 64.035156 37.425781 C 62.734375 37.425781 62.082031 38.082031 62.082031 39.394531 L 62.082031 46.984375 C 62.082031 50.507812 60.320312 52.269531 56.796875 52.269531 C 56.320312 52.269531 55.925781 52.113281 55.613281 51.792969 C 55.300781 51.476562 55.144531 51.078125 55.144531 50.601562 C 55.144531 50.125 55.300781 49.730469 55.613281 49.421875 C 55.925781 49.109375 56.320312 48.953125 56.796875 48.953125 C 58.109375 48.953125 58.765625 48.296875 58.765625 46.984375 L 58.765625 39.394531 C 58.765625 37.871094 59.113281 36.664062 59.8125 35.773438 C 59.113281 34.882812 58.765625 33.675781 58.765625 32.152344 L 58.765625 24.5625 C 58.765625 23.25 58.109375 22.59375 56.796875 22.59375 C 56.320312 22.59375 55.925781 22.4375 55.613281 22.125 C 55.300781 21.816406 55.144531 21.421875 55.144531 20.945312 C 55.144531 20.476562 55.300781 20.082031 55.613281 19.761719 C 55.925781 19.4375 56.320312 19.277344 56.796875 19.277344 C 60.320312 19.277344 62.082031 21.039062 62.082031 24.5625 " fill-opacity="1" fill-rule="nonzero"/></g><g clip-path="url(#fdccf87d07)"><path fill="#2563eb" d="M 38.710938 20.59375 C 38.710938 20.867188 38.660156 21.125 38.554688 21.363281 C 38.445312 21.601562 38.308594 21.808594 38.132812 21.988281 C 37.957031 22.171875 37.75 22.308594 37.503906 22.410156 C 37.261719 22.511719 37.007812 22.5625 36.742188 22.5625 C 36.253906 22.5625 35.839844 22.390625 35.488281 22.054688 C 35.140625 21.714844 34.855469 21.300781 34.632812 20.808594 C 34.410156 20.316406 34.246094 19.808594 34.148438 19.28125 C 34.046875 18.757812 33.996094 18.269531 33.996094 17.8125 C 33.996094 15.941406 34.796875 14.046875 36.394531 12.128906 C 36.679688 11.84375 37.003906 11.703125 37.363281 11.703125 C 37.730469 11.703125 38.050781 11.832031 38.316406 12.097656 C 38.578125 12.363281 38.710938 12.679688 38.710938 13.050781 C 38.710938 13.230469 38.675781 13.417969 38.601562 13.605469 C 38.125 14.769531 37.886719 15.878906 37.886719 16.925781 C 37.886719 17.921875 38.101562 18.882812 38.535156 19.816406 C 38.652344 20.078125 38.710938 20.339844 38.710938 20.59375 Z M 33.488281 20.59375 C 33.488281 20.867188 33.433594 21.125 33.328125 21.363281 C 33.222656 21.601562 33.082031 21.808594 32.910156 21.988281 C 32.734375 22.171875 32.523438 22.308594 32.28125 22.410156 C 32.039062 22.511719 31.785156 22.5625 31.519531 22.5625 C 31.03125 22.5625 30.613281 22.390625 30.265625 22.054688 C 29.914062 21.714844 29.628906 21.300781 29.40625 20.808594 C 29.183594 20.316406 29.023438 19.808594 28.921875 19.28125 C 28.824219 18.757812 28.773438 18.269531 28.773438 17.8125 C 28.773438 15.941406 29.570312 14.046875 31.167969 12.128906 C 31.457031 11.84375 31.777344 11.703125 32.136719 11.703125 C 32.507812 11.703125 32.828125 11.832031 33.089844 12.097656 C 33.355469 12.363281 33.488281 12.679688 33.488281 13.050781 C 33.488281 13.230469 33.449219 13.417969 33.375 13.605469 C 32.902344 14.769531 32.664062 15.878906 32.664062 16.925781 C 32.664062 17.921875 32.878906 18.882812 33.3125 19.816406 C 33.429688 20.078125 33.488281 20.339844 33.488281 20.59375 " fill-opacity="1" fill-rule="nonzero"/></g><g clip-path="url(#c366638d3e)"><g clip-path="url(#8dd24ee389)"><path fill="#ffffff" d="M 19.839844 31.984375 L 27.742188 31.984375 L 27.742188 39.890625 L 19.839844 39.890625 Z M 19.839844 31.984375 " fill-opacity="1" fill-rule="nonzero"/></g></g><g clip-path="url(#84d89003f7)"><g clip-path="url(#f8b178bd37)"><path stroke-linecap="butt" transform="matrix(1.172342, 0, 0, 1.172342, 19.840469, 31.98591)" fill="none" stroke-linejoin="miter" d="M 3.368125 -0.00130975 C 1.508866 -0.00130975 -0.000533281 1.508089 -0.000533281 3.367349 C -0.000533281 5.226608 1.508866 6.736007 3.368125 6.736007 C 5.227385 6.736007 6.733451 5.226608 6.733451 3.367349 C 6.733451 1.508089 5.227385 -0.00130975 3.368125 -0.00130975 Z M 3.368125 -0.00130975 " stroke="#ffffff" stroke-width="40.642635" stroke-opacity="1" stroke-miterlimit="4"/></g></g><g clip-path="url(#4b243dede1)"><g clip-path="url(#94b5962f44)"><path fill="#ffffff" d="M 40.472656 31.984375 L 48.375 31.984375 L 48.375 39.890625 L 40.472656 39.890625 Z M 40.472656 31.984375 " fill-opacity="1" fill-rule="nonzero"/></g></g><g clip-path="url(#6a443de893)"><g clip-path="url(#c8fc4e2c81)"><path stroke-linecap="butt" transform="matrix(1.172342, 0, 0, 1.172342, 40.473685, 31.98591)" fill="none" stroke-linejoin="miter" d="M 3.367781 -0.00130975 C 1.508522 -0.00130975 -0.000877228 1.508089 -0.000877228 3.367349 C -0.000877228 5.226608 1.508522 6.736007 3.367781 6.736007 C 5.227041 6.736007 6.733108 5.226608 6.733108 3.367349 C 6.733108 1.508089 5.227041 -0.00130975 3.367781 -0.00130975 Z M 3.367781 -0.00130975 " stroke="#ffffff" stroke-width="40.642635" stroke-opacity="1" stroke-miterlimit="4"/></g></g><g fill="#ffffff" fill-opacity="1"><g transform="translate(72.209197, 33.407403)"><g><path d="M 2.0625 -12.578125 C 2.09375 -12.734375 2.160156 -12.867188 2.265625 -12.984375 C 2.367188 -13.109375 2.582031 -13.195312 2.90625 -13.25 C 3.0625 -13.269531 3.234375 -13.285156 3.421875 -13.296875 C 3.617188 -13.316406 3.816406 -13.328125 4.015625 -13.328125 C 4.222656 -13.335938 4.410156 -13.34375 4.578125 -13.34375 C 5.609375 -13.34375 6.523438 -13.179688 7.328125 -12.859375 C 8.128906 -12.546875 8.753906 -12.082031 9.203125 -11.46875 C 9.660156 -10.863281 9.890625 -10.125 9.890625 -9.25 C 9.890625 -8.59375 9.734375 -8.015625 9.421875 -7.515625 C 9.117188 -7.023438 8.707031 -6.613281 8.1875 -6.28125 C 7.664062 -5.957031 7.082031 -5.710938 6.4375 -5.546875 C 5.789062 -5.378906 5.132812 -5.296875 4.46875 -5.296875 C 4.25 -5.296875 4.035156 -5.300781 3.828125 -5.3125 C 3.628906 -5.332031 3.4375 -5.363281 3.25 -5.40625 C 3.21875 -4.59375 3.1875 -3.769531 3.15625 -2.9375 C 3.125 -2.113281 3.085938 -1.28125 3.046875 -0.4375 C 3.035156 -0.195312 2.945312 -0.0234375 2.78125 0.078125 C 2.625 0.191406 2.441406 0.25 2.234375 0.25 C 2.023438 0.25 1.84375 0.1875 1.6875 0.0625 C 1.53125 -0.0507812 1.457031 -0.226562 1.46875 -0.46875 C 1.59375 -2.476562 1.675781 -4.5 1.71875 -6.53125 C 1.769531 -8.5625 1.882812 -10.578125 2.0625 -12.578125 Z M 3.296875 -6.875 C 3.492188 -6.851562 3.695312 -6.820312 3.90625 -6.78125 C 4.125 -6.75 4.378906 -6.734375 4.671875 -6.734375 C 5.046875 -6.734375 5.441406 -6.78125 5.859375 -6.875 C 6.285156 -6.976562 6.679688 -7.132812 7.046875 -7.34375 C 7.421875 -7.550781 7.722656 -7.820312 7.953125 -8.15625 C 8.191406 -8.5 8.3125 -8.90625 8.3125 -9.375 C 8.3125 -9.632812 8.25 -9.910156 8.125 -10.203125 C 8.007812 -10.503906 7.804688 -10.78125 7.515625 -11.03125 C 7.234375 -11.289062 6.851562 -11.503906 6.375 -11.671875 C 5.90625 -11.835938 5.3125 -11.921875 4.59375 -11.921875 C 4.375 -11.921875 4.179688 -11.910156 4.015625 -11.890625 C 3.859375 -11.867188 3.710938 -11.847656 3.578125 -11.828125 C 3.535156 -11.296875 3.5 -10.753906 3.46875 -10.203125 C 3.4375 -9.660156 3.40625 -9.109375 3.375 -8.546875 C 3.34375 -7.992188 3.316406 -7.4375 3.296875 -6.875 Z M 3.296875 -6.875 "/></g></g></g><g fill="#ffffff" fill-opacity="1"><g transform="translate(82.757665, 33.407403)"><g><path d="M 1.6875 -8.59375 C 1.695312 -8.832031 1.78125 -9.007812 1.9375 -9.125 C 2.101562 -9.25 2.296875 -9.3125 2.515625 -9.3125 C 2.722656 -9.3125 2.898438 -9.253906 3.046875 -9.140625 C 3.191406 -9.035156 3.265625 -8.875 3.265625 -8.65625 C 3.265625 -8.582031 3.265625 -8.488281 3.265625 -8.375 C 3.265625 -8.269531 3.257812 -8.148438 3.25 -8.015625 C 3.25 -7.890625 3.238281 -7.75 3.21875 -7.59375 C 3.539062 -8.15625 3.914062 -8.578125 4.34375 -8.859375 C 4.769531 -9.140625 5.25 -9.28125 5.78125 -9.28125 C 6.039062 -9.28125 6.320312 -9.242188 6.625 -9.171875 C 6.925781 -9.097656 7.238281 -8.960938 7.5625 -8.765625 C 7.695312 -8.691406 7.789062 -8.597656 7.84375 -8.484375 C 7.90625 -8.367188 7.929688 -8.226562 7.921875 -8.0625 C 7.898438 -7.8125 7.816406 -7.617188 7.671875 -7.484375 C 7.535156 -7.359375 7.363281 -7.296875 7.15625 -7.296875 C 7.039062 -7.296875 6.9375 -7.316406 6.84375 -7.359375 C 6.75 -7.410156 6.65625 -7.460938 6.5625 -7.515625 C 6.445312 -7.585938 6.328125 -7.65625 6.203125 -7.71875 C 6.078125 -7.78125 5.914062 -7.8125 5.71875 -7.8125 C 5.050781 -7.8125 4.515625 -7.476562 4.109375 -6.8125 C 3.703125 -6.144531 3.367188 -5.285156 3.109375 -4.234375 C 3.097656 -3.847656 3.085938 -3.488281 3.078125 -3.15625 C 3.078125 -2.820312 3.070312 -2.5 3.0625 -2.1875 C 3.050781 -1.875 3.039062 -1.578125 3.03125 -1.296875 C 3.03125 -1.015625 3.03125 -0.738281 3.03125 -0.46875 C 3.03125 -0.3125 2.988281 -0.179688 2.90625 -0.078125 C 2.832031 0.015625 2.734375 0.0859375 2.609375 0.140625 C 2.492188 0.191406 2.367188 0.21875 2.234375 0.21875 C 1.984375 0.21875 1.796875 0.144531 1.671875 0 C 1.546875 -0.144531 1.457031 -0.335938 1.40625 -0.578125 C 1.363281 -0.828125 1.34375 -1.097656 1.34375 -1.390625 C 1.34375 -1.609375 1.351562 -1.890625 1.375 -2.234375 C 1.394531 -2.578125 1.414062 -2.921875 1.4375 -3.265625 C 1.46875 -3.609375 1.5 -3.894531 1.53125 -4.125 Z M 1.6875 -8.59375 "/></g></g></g><g fill="#ffffff" fill-opacity="1"><g transform="translate(90.707481, 33.407403)"><g><path d="M 4.96875 -9.328125 C 5.238281 -9.328125 5.503906 -9.300781 5.765625 -9.25 C 6.023438 -9.195312 6.269531 -9.125 6.5 -9.03125 C 6.726562 -8.9375 6.921875 -8.816406 7.078125 -8.671875 C 7.597656 -8.242188 7.976562 -7.691406 8.21875 -7.015625 C 8.46875 -6.347656 8.59375 -5.644531 8.59375 -4.90625 C 8.59375 -4.28125 8.515625 -3.671875 8.359375 -3.078125 C 8.203125 -2.492188 7.96875 -1.960938 7.65625 -1.484375 C 7.351562 -1.015625 6.976562 -0.640625 6.53125 -0.359375 C 6.082031 -0.0859375 5.578125 0.046875 5.015625 0.046875 C 4.429688 0.046875 3.890625 -0.078125 3.390625 -0.328125 C 2.898438 -0.578125 2.460938 -0.914062 2.078125 -1.34375 C 1.703125 -1.78125 1.410156 -2.28125 1.203125 -2.84375 C 1.003906 -3.40625 0.90625 -4 0.90625 -4.625 C 0.90625 -5.21875 0.992188 -5.796875 1.171875 -6.359375 C 1.347656 -6.921875 1.609375 -7.425781 1.953125 -7.875 C 2.304688 -8.320312 2.734375 -8.675781 3.234375 -8.9375 C 3.742188 -9.195312 4.320312 -9.328125 4.96875 -9.328125 Z M 2.484375 -4.75 C 2.484375 -4.175781 2.578125 -3.632812 2.765625 -3.125 C 2.960938 -2.625 3.242188 -2.21875 3.609375 -1.90625 C 3.984375 -1.59375 4.429688 -1.4375 4.953125 -1.4375 C 5.316406 -1.4375 5.628906 -1.535156 5.890625 -1.734375 C 6.160156 -1.929688 6.378906 -2.195312 6.546875 -2.53125 C 6.710938 -2.875 6.835938 -3.242188 6.921875 -3.640625 C 7.003906 -4.035156 7.046875 -4.429688 7.046875 -4.828125 C 7.046875 -5.515625 6.929688 -6.097656 6.703125 -6.578125 C 6.484375 -7.066406 6.1875 -7.441406 5.8125 -7.703125 C 5.664062 -7.753906 5.519531 -7.785156 5.375 -7.796875 C 5.226562 -7.816406 5.082031 -7.828125 4.9375 -7.828125 C 4.550781 -7.828125 4.203125 -7.742188 3.890625 -7.578125 C 3.585938 -7.410156 3.328125 -7.179688 3.109375 -6.890625 C 2.898438 -6.609375 2.742188 -6.285156 2.640625 -5.921875 C 2.535156 -5.554688 2.484375 -5.164062 2.484375 -4.75 Z M 2.484375 -4.75 "/></g></g></g><g fill="#ffffff" fill-opacity="1"><g transform="translate(100.195971, 33.407403)"><g><path d="M 7.4375 -13.515625 C 7.457031 -13.753906 7.539062 -13.929688 7.6875 -14.046875 C 7.84375 -14.160156 8.015625 -14.21875 8.203125 -14.21875 C 8.421875 -14.21875 8.613281 -14.160156 8.78125 -14.046875 C 8.945312 -13.929688 9.015625 -13.75 8.984375 -13.5 C 8.835938 -11.34375 8.71875 -9.179688 8.625 -7.015625 C 8.53125 -4.847656 8.429688 -2.679688 8.328125 -0.515625 C 8.328125 -0.273438 8.238281 -0.0976562 8.0625 0.015625 C 7.894531 0.128906 7.710938 0.1875 7.515625 0.1875 C 7.328125 0.1875 7.148438 0.125 6.984375 0 C 6.828125 -0.113281 6.753906 -0.28125 6.765625 -0.5 C 6.773438 -0.644531 6.78125 -0.78125 6.78125 -0.90625 C 6.789062 -1.039062 6.800781 -1.1875 6.8125 -1.34375 C 6.832031 -1.507812 6.847656 -1.707031 6.859375 -1.9375 C 6.609375 -1.5 6.316406 -1.125 5.984375 -0.8125 C 5.648438 -0.507812 5.296875 -0.273438 4.921875 -0.109375 C 4.546875 0.0546875 4.164062 0.140625 3.78125 0.140625 C 3.300781 0.140625 2.878906 0.015625 2.515625 -0.234375 C 2.160156 -0.484375 1.863281 -0.8125 1.625 -1.21875 C 1.382812 -1.632812 1.203125 -2.082031 1.078125 -2.5625 C 0.960938 -3.050781 0.90625 -3.523438 0.90625 -3.984375 C 0.90625 -4.648438 1.015625 -5.300781 1.234375 -5.9375 C 1.453125 -6.582031 1.753906 -7.15625 2.140625 -7.65625 C 2.523438 -8.164062 2.976562 -8.566406 3.5 -8.859375 C 4.03125 -9.160156 4.609375 -9.3125 5.234375 -9.3125 C 5.535156 -9.3125 5.847656 -9.269531 6.171875 -9.1875 C 6.503906 -9.113281 6.828125 -8.984375 7.140625 -8.796875 C 7.179688 -9.328125 7.210938 -9.851562 7.234375 -10.375 C 7.265625 -10.90625 7.296875 -11.4375 7.328125 -11.96875 C 7.367188 -12.5 7.40625 -13.015625 7.4375 -13.515625 Z M 2.5 -3.953125 C 2.5 -3.515625 2.5625 -3.09375 2.6875 -2.6875 C 2.8125 -2.28125 2.976562 -1.945312 3.1875 -1.6875 C 3.40625 -1.4375 3.648438 -1.3125 3.921875 -1.3125 C 4.296875 -1.3125 4.644531 -1.441406 4.96875 -1.703125 C 5.300781 -1.972656 5.597656 -2.300781 5.859375 -2.6875 C 6.117188 -3.082031 6.332031 -3.488281 6.5 -3.90625 C 6.664062 -4.332031 6.757812 -4.703125 6.78125 -5.015625 C 6.789062 -5.078125 6.804688 -5.132812 6.828125 -5.1875 C 6.859375 -5.238281 6.898438 -5.285156 6.953125 -5.328125 L 7.0625 -7.203125 C 6.789062 -7.441406 6.488281 -7.613281 6.15625 -7.71875 C 5.820312 -7.820312 5.523438 -7.875 5.265625 -7.875 C 4.835938 -7.875 4.410156 -7.722656 3.984375 -7.421875 C 3.554688 -7.117188 3.203125 -6.675781 2.921875 -6.09375 C 2.640625 -5.507812 2.5 -4.796875 2.5 -3.953125 Z M 2.5 -3.953125 "/></g></g></g><g fill="#ffffff" fill-opacity="1"><g transform="translate(110.282837, 33.407403)"><g><path d="M 1.78125 -8.5625 C 1.78125 -8.71875 1.816406 -8.847656 1.890625 -8.953125 C 1.960938 -9.054688 2.054688 -9.132812 2.171875 -9.1875 C 2.296875 -9.238281 2.421875 -9.265625 2.546875 -9.265625 C 2.773438 -9.265625 2.960938 -9.207031 3.109375 -9.09375 C 3.265625 -8.976562 3.34375 -8.800781 3.34375 -8.5625 C 3.34375 -7.738281 3.328125 -7.007812 3.296875 -6.375 C 3.273438 -5.738281 3.242188 -5.128906 3.203125 -4.546875 C 3.171875 -3.960938 3.140625 -3.347656 3.109375 -2.703125 C 3.085938 -2.066406 3.070312 -1.328125 3.0625 -0.484375 C 3.0625 -0.265625 2.984375 -0.0859375 2.828125 0.046875 C 2.679688 0.179688 2.503906 0.25 2.296875 0.25 C 2.066406 0.25 1.894531 0.195312 1.78125 0.09375 C 1.664062 0 1.585938 -0.125 1.546875 -0.28125 C 1.503906 -0.445312 1.484375 -0.613281 1.484375 -0.78125 C 1.484375 -0.882812 1.488281 -1.132812 1.5 -1.53125 C 1.519531 -1.9375 1.546875 -2.429688 1.578125 -3.015625 C 1.609375 -3.597656 1.640625 -4.222656 1.671875 -4.890625 C 1.703125 -5.554688 1.726562 -6.207031 1.75 -6.84375 C 1.769531 -7.488281 1.78125 -8.0625 1.78125 -8.5625 Z M 1.53125 -12.171875 C 1.53125 -12.367188 1.570312 -12.566406 1.65625 -12.765625 C 1.75 -12.960938 1.867188 -13.128906 2.015625 -13.265625 C 2.160156 -13.398438 2.332031 -13.46875 2.53125 -13.46875 C 2.894531 -13.46875 3.164062 -13.394531 3.34375 -13.25 C 3.519531 -13.101562 3.632812 -12.9375 3.6875 -12.75 C 3.75 -12.570312 3.78125 -12.429688 3.78125 -12.328125 C 3.78125 -12.015625 3.660156 -11.734375 3.421875 -11.484375 C 3.191406 -11.234375 2.914062 -11.109375 2.59375 -11.109375 C 2.3125 -11.109375 2.0625 -11.207031 1.84375 -11.40625 C 1.632812 -11.613281 1.53125 -11.867188 1.53125 -12.171875 Z M 1.53125 -12.171875 "/></g></g></g><g fill="#ffffff" fill-opacity="1"><g transform="translate(115.069827, 33.407403)"><g><path d="M 1.984375 4.859375 C 1.742188 4.859375 1.546875 4.796875 1.390625 4.671875 C 1.234375 4.554688 1.160156 4.375 1.171875 4.125 C 1.210938 3.445312 1.242188 2.835938 1.265625 2.296875 C 1.296875 1.765625 1.320312 1.242188 1.34375 0.734375 C 1.375 0.222656 1.398438 -0.316406 1.421875 -0.890625 C 1.453125 -1.472656 1.488281 -2.125 1.53125 -2.84375 C 1.570312 -3.570312 1.613281 -4.421875 1.65625 -5.390625 C 1.695312 -6.359375 1.753906 -7.488281 1.828125 -8.78125 C 1.835938 -9.03125 1.941406 -9.210938 2.140625 -9.328125 C 2.335938 -9.441406 2.535156 -9.5 2.734375 -9.5 C 2.921875 -9.5 3.070312 -9.429688 3.1875 -9.296875 C 3.3125 -9.160156 3.375 -8.992188 3.375 -8.796875 C 3.375 -8.617188 3.367188 -8.4375 3.359375 -8.25 C 3.347656 -8.0625 3.332031 -7.804688 3.3125 -7.484375 C 3.75 -8.085938 4.21875 -8.539062 4.71875 -8.84375 C 5.226562 -9.144531 5.757812 -9.296875 6.3125 -9.296875 C 6.738281 -9.296875 7.140625 -9.179688 7.515625 -8.953125 C 7.890625 -8.722656 8.21875 -8.410156 8.5 -8.015625 C 8.789062 -7.628906 9.015625 -7.179688 9.171875 -6.671875 C 9.335938 -6.171875 9.421875 -5.632812 9.421875 -5.0625 C 9.421875 -4.34375 9.320312 -3.660156 9.125 -3.015625 C 8.925781 -2.378906 8.644531 -1.816406 8.28125 -1.328125 C 7.925781 -0.835938 7.503906 -0.453125 7.015625 -0.171875 C 6.535156 0.0976562 6.007812 0.234375 5.4375 0.234375 C 5 0.234375 4.566406 0.15625 4.140625 0 C 3.722656 -0.15625 3.335938 -0.378906 2.984375 -0.671875 C 2.953125 0.160156 2.914062 0.960938 2.875 1.734375 C 2.84375 2.503906 2.800781 3.304688 2.75 4.140625 C 2.738281 4.359375 2.671875 4.53125 2.546875 4.65625 C 2.421875 4.789062 2.234375 4.859375 1.984375 4.859375 Z M 5.40625 -1.203125 C 5.726562 -1.203125 6.03125 -1.300781 6.3125 -1.5 C 6.601562 -1.695312 6.859375 -1.96875 7.078125 -2.3125 C 7.304688 -2.65625 7.484375 -3.050781 7.609375 -3.5 C 7.734375 -3.945312 7.796875 -4.414062 7.796875 -4.90625 C 7.796875 -5.320312 7.75 -5.707031 7.65625 -6.0625 C 7.570312 -6.425781 7.453125 -6.738281 7.296875 -7 C 7.148438 -7.269531 6.96875 -7.472656 6.75 -7.609375 C 6.539062 -7.753906 6.304688 -7.828125 6.046875 -7.828125 C 5.796875 -7.828125 5.53125 -7.734375 5.25 -7.546875 C 4.976562 -7.367188 4.703125 -7.125 4.421875 -6.8125 C 4.148438 -6.5 3.898438 -6.140625 3.671875 -5.734375 C 3.453125 -5.335938 3.269531 -4.921875 3.125 -4.484375 C 3.113281 -4.085938 3.101562 -3.722656 3.09375 -3.390625 C 3.082031 -3.054688 3.066406 -2.691406 3.046875 -2.296875 C 3.398438 -1.941406 3.789062 -1.671875 4.21875 -1.484375 C 4.644531 -1.296875 5.039062 -1.203125 5.40625 -1.203125 Z M 5.40625 -1.203125 "/></g></g></g><g fill="#ffffff" fill-opacity="1"><g transform="translate(72.209197, 49.460866)"><g><path d="M 2.21875 -12.5 C 2.238281 -12.726562 2.316406 -12.898438 2.453125 -13.015625 C 2.597656 -13.140625 2.765625 -13.203125 2.953125 -13.203125 C 3.054688 -13.203125 3.15625 -13.1875 3.25 -13.15625 C 3.351562 -13.125 3.445312 -13.078125 3.53125 -13.015625 C 3.613281 -12.953125 3.679688 -12.878906 3.734375 -12.796875 C 3.785156 -12.710938 3.804688 -12.609375 3.796875 -12.484375 L 3.046875 -0.46875 C 3.035156 -0.226562 2.945312 -0.0507812 2.78125 0.0625 C 2.613281 0.175781 2.425781 0.234375 2.21875 0.234375 C 2.039062 0.234375 1.867188 0.175781 1.703125 0.0625 C 1.535156 -0.0507812 1.457031 -0.226562 1.46875 -0.46875 Z M 3.484375 -11.671875 C 3.347656 -11.648438 3.226562 -11.65625 3.125 -11.6875 C 3.019531 -11.726562 2.925781 -11.785156 2.84375 -11.859375 C 2.769531 -11.929688 2.710938 -12.015625 2.671875 -12.109375 C 2.628906 -12.203125 2.609375 -12.296875 2.609375 -12.390625 C 2.609375 -12.585938 2.710938 -12.757812 2.921875 -12.90625 C 3.140625 -13.0625 3.5 -13.164062 4 -13.21875 C 4.257812 -13.238281 4.515625 -13.253906 4.765625 -13.265625 C 5.023438 -13.285156 5.28125 -13.296875 5.53125 -13.296875 C 6.738281 -13.296875 7.726562 -13.125 8.5 -12.78125 C 9.28125 -12.4375 9.859375 -11.988281 10.234375 -11.4375 C 10.609375 -10.882812 10.796875 -10.300781 10.796875 -9.6875 C 10.796875 -9.195312 10.679688 -8.707031 10.453125 -8.21875 C 10.234375 -7.738281 9.898438 -7.300781 9.453125 -6.90625 C 9.015625 -6.519531 8.476562 -6.203125 7.84375 -5.953125 C 7.21875 -5.703125 6.5 -5.5625 5.6875 -5.53125 C 6.226562 -5.164062 6.734375 -4.8125 7.203125 -4.46875 C 7.679688 -4.125 8.140625 -3.773438 8.578125 -3.421875 C 9.023438 -3.066406 9.460938 -2.707031 9.890625 -2.34375 C 10.328125 -1.976562 10.773438 -1.585938 11.234375 -1.171875 C 11.304688 -1.097656 11.359375 -1.015625 11.390625 -0.921875 C 11.429688 -0.835938 11.453125 -0.753906 11.453125 -0.671875 C 11.453125 -0.535156 11.414062 -0.40625 11.34375 -0.28125 C 11.28125 -0.164062 11.1875 -0.0664062 11.0625 0.015625 C 10.945312 0.0976562 10.820312 0.140625 10.6875 0.140625 C 10.582031 0.140625 10.472656 0.113281 10.359375 0.0625 C 10.242188 0.0195312 10.125 -0.0507812 10 -0.15625 C 9.539062 -0.5625 9.023438 -1.003906 8.453125 -1.484375 C 7.878906 -1.972656 7.273438 -2.460938 6.640625 -2.953125 C 6.003906 -3.453125 5.367188 -3.929688 4.734375 -4.390625 C 4.097656 -4.847656 3.488281 -5.265625 2.90625 -5.640625 L 3.234375 -6.96875 C 3.359375 -6.957031 3.570312 -6.929688 3.875 -6.890625 C 4.1875 -6.847656 4.578125 -6.828125 5.046875 -6.828125 C 5.828125 -6.828125 6.484375 -6.921875 7.015625 -7.109375 C 7.554688 -7.304688 7.988281 -7.550781 8.3125 -7.84375 C 8.632812 -8.144531 8.867188 -8.457031 9.015625 -8.78125 C 9.160156 -9.113281 9.234375 -9.414062 9.234375 -9.6875 C 9.234375 -10.125 9.066406 -10.5 8.734375 -10.8125 C 8.410156 -11.132812 7.96875 -11.382812 7.40625 -11.5625 C 6.84375 -11.75 6.191406 -11.84375 5.453125 -11.84375 C 5.191406 -11.84375 4.960938 -11.835938 4.765625 -11.828125 C 4.578125 -11.816406 4.382812 -11.800781 4.1875 -11.78125 C 3.988281 -11.757812 3.753906 -11.722656 3.484375 -11.671875 Z M 3.484375 -11.671875 "/></g></g></g><g fill="#ffffff" fill-opacity="1"><g transform="translate(84.672464, 49.460866)"><g><path d="M 0.875 -4 C 0.875 -4.675781 0.972656 -5.328125 1.171875 -5.953125 C 1.378906 -6.585938 1.671875 -7.15625 2.046875 -7.65625 C 2.421875 -8.15625 2.863281 -8.550781 3.375 -8.84375 C 3.882812 -9.132812 4.441406 -9.28125 5.046875 -9.28125 C 5.390625 -9.28125 5.734375 -9.222656 6.078125 -9.109375 C 6.421875 -9.003906 6.757812 -8.820312 7.09375 -8.5625 C 7.144531 -8.8125 7.222656 -8.988281 7.328125 -9.09375 C 7.441406 -9.207031 7.59375 -9.265625 7.78125 -9.265625 C 8.007812 -9.265625 8.203125 -9.191406 8.359375 -9.046875 C 8.515625 -8.910156 8.585938 -8.707031 8.578125 -8.4375 C 8.566406 -8.09375 8.523438 -7.660156 8.453125 -7.140625 C 8.390625 -6.617188 8.320312 -6.101562 8.25 -5.59375 C 8.226562 -5.425781 8.191406 -5.195312 8.140625 -4.90625 C 8.097656 -4.625 8.0625 -4.335938 8.03125 -4.046875 C 8.007812 -3.765625 8 -3.539062 8 -3.375 C 8 -3.15625 8.015625 -2.878906 8.046875 -2.546875 C 8.085938 -2.222656 8.15625 -1.9375 8.25 -1.6875 C 8.34375 -1.4375 8.46875 -1.3125 8.625 -1.3125 C 8.757812 -1.3125 8.875 -1.359375 8.96875 -1.453125 C 9.070312 -1.546875 9.171875 -1.679688 9.265625 -1.859375 C 9.316406 -1.984375 9.394531 -2.070312 9.5 -2.125 C 9.613281 -2.175781 9.726562 -2.203125 9.84375 -2.203125 C 9.96875 -2.203125 10.085938 -2.171875 10.203125 -2.109375 C 10.316406 -2.046875 10.40625 -1.957031 10.46875 -1.84375 C 10.53125 -1.738281 10.554688 -1.609375 10.546875 -1.453125 C 10.546875 -1.234375 10.457031 -1 10.28125 -0.75 C 10.113281 -0.5 9.878906 -0.285156 9.578125 -0.109375 C 9.285156 0.0664062 8.953125 0.15625 8.578125 0.15625 C 8.265625 0.15625 7.976562 0.0859375 7.71875 -0.046875 C 7.46875 -0.179688 7.265625 -0.378906 7.109375 -0.640625 C 6.953125 -0.898438 6.84375 -1.210938 6.78125 -1.578125 C 6.4375 -1.078125 6.0625 -0.6875 5.65625 -0.40625 C 5.25 -0.125 4.757812 0.015625 4.1875 0.015625 C 3.457031 0.015625 2.847656 -0.15625 2.359375 -0.5 C 1.867188 -0.851562 1.5 -1.332031 1.25 -1.9375 C 1 -2.539062 0.875 -3.226562 0.875 -4 Z M 2.46875 -4.0625 C 2.46875 -3.507812 2.53125 -3.035156 2.65625 -2.640625 C 2.789062 -2.242188 2.988281 -1.941406 3.25 -1.734375 C 3.507812 -1.523438 3.835938 -1.421875 4.234375 -1.421875 C 4.554688 -1.421875 4.832031 -1.488281 5.0625 -1.625 C 5.289062 -1.769531 5.488281 -1.96875 5.65625 -2.21875 C 5.832031 -2.46875 5.984375 -2.757812 6.109375 -3.09375 C 6.210938 -3.375 6.304688 -3.6875 6.390625 -4.03125 C 6.484375 -4.375 6.554688 -4.726562 6.609375 -5.09375 C 6.671875 -5.46875 6.71875 -5.832031 6.75 -6.1875 C 6.78125 -6.539062 6.8125 -6.863281 6.84375 -7.15625 C 6.5625 -7.382812 6.265625 -7.554688 5.953125 -7.671875 C 5.640625 -7.796875 5.359375 -7.859375 5.109375 -7.859375 C 4.703125 -7.859375 4.332031 -7.753906 4 -7.546875 C 3.675781 -7.335938 3.398438 -7.050781 3.171875 -6.6875 C 2.941406 -6.332031 2.765625 -5.925781 2.640625 -5.46875 C 2.523438 -5.019531 2.46875 -4.550781 2.46875 -4.0625 Z M 2.46875 -4.0625 "/></g></g></g><g fill="#ffffff" fill-opacity="1"><g transform="translate(95.306421, 49.460866)"><g><path d="M 1.953125 -8.6875 C 1.984375 -8.957031 2.078125 -9.140625 2.234375 -9.234375 C 2.398438 -9.335938 2.5625 -9.390625 2.71875 -9.390625 C 2.914062 -9.390625 3.070312 -9.351562 3.1875 -9.28125 C 3.3125 -9.207031 3.398438 -9.125 3.453125 -9.03125 C 3.503906 -8.9375 3.523438 -8.84375 3.515625 -8.75 C 3.503906 -8.632812 3.488281 -8.484375 3.46875 -8.296875 C 3.457031 -8.117188 3.441406 -7.875 3.421875 -7.5625 C 3.410156 -7.25 3.394531 -6.832031 3.375 -6.3125 C 3.351562 -5.789062 3.335938 -5.132812 3.328125 -4.34375 C 3.316406 -3.613281 3.300781 -2.890625 3.28125 -2.171875 C 3.269531 -1.453125 3.234375 -0.734375 3.171875 -0.015625 C 3.109375 0.691406 3.007812 1.398438 2.875 2.109375 C 2.78125 2.617188 2.632812 3.050781 2.4375 3.40625 C 2.25 3.769531 2.023438 4.046875 1.765625 4.234375 C 1.515625 4.421875 1.234375 4.515625 0.921875 4.515625 C 0.578125 4.515625 0.222656 4.394531 -0.140625 4.15625 C -0.515625 3.914062 -0.851562 3.578125 -1.15625 3.140625 C -1.238281 3.023438 -1.285156 2.929688 -1.296875 2.859375 C -1.316406 2.785156 -1.328125 2.722656 -1.328125 2.671875 C -1.328125 2.515625 -1.285156 2.382812 -1.203125 2.28125 C -1.128906 2.175781 -1.03125 2.085938 -0.90625 2.015625 C -0.789062 1.953125 -0.671875 1.921875 -0.546875 1.921875 C -0.421875 1.921875 -0.304688 1.953125 -0.203125 2.015625 C -0.0976562 2.078125 -0.00390625 2.175781 0.078125 2.3125 C 0.242188 2.539062 0.394531 2.710938 0.53125 2.828125 C 0.664062 2.953125 0.769531 3.015625 0.84375 3.015625 C 0.90625 3.015625 0.984375 2.898438 1.078125 2.671875 C 1.179688 2.441406 1.28125 2.054688 1.375 1.515625 C 1.476562 0.984375 1.566406 0.265625 1.640625 -0.640625 C 1.710938 -1.546875 1.75 -2.675781 1.75 -4.03125 C 1.75 -4.84375 1.757812 -5.644531 1.78125 -6.4375 C 1.800781 -7.238281 1.859375 -7.988281 1.953125 -8.6875 Z M 1.6875 -12.390625 C 1.6875 -12.804688 1.796875 -13.101562 2.015625 -13.28125 C 2.242188 -13.46875 2.519531 -13.5625 2.84375 -13.5625 C 3.132812 -13.5625 3.367188 -13.453125 3.546875 -13.234375 C 3.722656 -13.015625 3.8125 -12.773438 3.8125 -12.515625 C 3.8125 -12.242188 3.742188 -12.019531 3.609375 -11.84375 C 3.472656 -11.664062 3.304688 -11.53125 3.109375 -11.4375 C 2.921875 -11.351562 2.734375 -11.3125 2.546875 -11.3125 C 2.285156 -11.3125 2.078125 -11.425781 1.921875 -11.65625 C 1.765625 -11.882812 1.6875 -12.128906 1.6875 -12.390625 Z M 1.6875 -12.390625 "/></g></g></g><g fill="#ffffff" fill-opacity="1"><g transform="translate(100.144697, 49.460866)"><g><path d="M 2.03125 -13.53125 C 2.050781 -13.789062 2.132812 -13.976562 2.28125 -14.09375 C 2.425781 -14.207031 2.613281 -14.265625 2.84375 -14.265625 C 3.050781 -14.265625 3.234375 -14.207031 3.390625 -14.09375 C 3.546875 -13.976562 3.617188 -13.789062 3.609375 -13.53125 C 3.554688 -13.09375 3.515625 -12.644531 3.484375 -12.1875 C 3.453125 -11.726562 3.425781 -11.265625 3.40625 -10.796875 C 3.382812 -10.335938 3.363281 -9.859375 3.34375 -9.359375 C 3.320312 -8.859375 3.300781 -8.347656 3.28125 -7.828125 C 3.488281 -8.117188 3.71875 -8.363281 3.96875 -8.5625 C 4.21875 -8.769531 4.476562 -8.925781 4.75 -9.03125 C 5.03125 -9.144531 5.328125 -9.203125 5.640625 -9.203125 C 6.359375 -9.203125 6.957031 -9.003906 7.4375 -8.609375 C 7.925781 -8.222656 8.289062 -7.703125 8.53125 -7.046875 C 8.78125 -6.398438 8.90625 -5.6875 8.90625 -4.90625 C 8.90625 -3.976562 8.742188 -3.132812 8.421875 -2.375 C 8.109375 -1.613281 7.65625 -1 7.0625 -0.53125 C 6.476562 -0.0703125 5.78125 0.15625 4.96875 0.15625 C 4.59375 0.15625 4.21875 0.101562 3.84375 0 C 3.46875 -0.101562 3.132812 -0.242188 2.84375 -0.421875 C 2.78125 -0.234375 2.679688 -0.101562 2.546875 -0.03125 C 2.421875 0.03125 2.285156 0.0625 2.140625 0.0625 C 1.941406 0.0625 1.765625 0.00390625 1.609375 -0.109375 C 1.460938 -0.222656 1.390625 -0.382812 1.390625 -0.59375 C 1.390625 -0.664062 1.390625 -0.773438 1.390625 -0.921875 C 1.398438 -1.078125 1.410156 -1.191406 1.421875 -1.265625 C 1.316406 -1.359375 1.238281 -1.445312 1.1875 -1.53125 C 1.144531 -1.625 1.125 -1.738281 1.125 -1.875 C 1.125 -1.96875 1.15625 -2.066406 1.21875 -2.171875 C 1.28125 -2.273438 1.367188 -2.363281 1.484375 -2.4375 C 1.554688 -3.707031 1.613281 -4.941406 1.65625 -6.140625 C 1.695312 -7.347656 1.742188 -8.5625 1.796875 -9.78125 C 1.847656 -11 1.925781 -12.25 2.03125 -13.53125 Z M 3.015625 -1.875 C 3.273438 -1.675781 3.546875 -1.523438 3.828125 -1.421875 C 4.109375 -1.328125 4.414062 -1.28125 4.75 -1.28125 C 5.195312 -1.28125 5.613281 -1.394531 6 -1.625 C 6.394531 -1.851562 6.710938 -2.222656 6.953125 -2.734375 C 7.191406 -3.253906 7.3125 -3.953125 7.3125 -4.828125 C 7.3125 -5.335938 7.25 -5.8125 7.125 -6.25 C 7.007812 -6.695312 6.820312 -7.050781 6.5625 -7.3125 C 6.300781 -7.582031 5.941406 -7.71875 5.484375 -7.71875 C 5.171875 -7.71875 4.875 -7.609375 4.59375 -7.390625 C 4.3125 -7.179688 4.0625 -6.914062 3.84375 -6.59375 C 3.625 -6.269531 3.453125 -5.925781 3.328125 -5.5625 C 3.203125 -5.207031 3.132812 -4.878906 3.125 -4.578125 C 3.113281 -4.273438 3.101562 -3.960938 3.09375 -3.640625 C 3.082031 -3.328125 3.070312 -3.023438 3.0625 -2.734375 C 3.050781 -2.441406 3.035156 -2.15625 3.015625 -1.875 Z M 3.015625 -1.875 "/></g></g></g><g fill="#ffffff" fill-opacity="1"><g transform="translate(109.992216, 49.460866)"><g><path d="M 4.96875 -9.328125 C 5.238281 -9.328125 5.503906 -9.300781 5.765625 -9.25 C 6.023438 -9.195312 6.269531 -9.125 6.5 -9.03125 C 6.726562 -8.9375 6.921875 -8.816406 7.078125 -8.671875 C 7.597656 -8.242188 7.976562 -7.691406 8.21875 -7.015625 C 8.46875 -6.347656 8.59375 -5.644531 8.59375 -4.90625 C 8.59375 -4.28125 8.515625 -3.671875 8.359375 -3.078125 C 8.203125 -2.492188 7.96875 -1.960938 7.65625 -1.484375 C 7.351562 -1.015625 6.976562 -0.640625 6.53125 -0.359375 C 6.082031 -0.0859375 5.578125 0.046875 5.015625 0.046875 C 4.429688 0.046875 3.890625 -0.078125 3.390625 -0.328125 C 2.898438 -0.578125 2.460938 -0.914062 2.078125 -1.34375 C 1.703125 -1.78125 1.410156 -2.28125 1.203125 -2.84375 C 1.003906 -3.40625 0.90625 -4 0.90625 -4.625 C 0.90625 -5.21875 0.992188 -5.796875 1.171875 -6.359375 C 1.347656 -6.921875 1.609375 -7.425781 1.953125 -7.875 C 2.304688 -8.320312 2.734375 -8.675781 3.234375 -8.9375 C 3.742188 -9.195312 4.320312 -9.328125 4.96875 -9.328125 Z M 2.484375 -4.75 C 2.484375 -4.175781 2.578125 -3.632812 2.765625 -3.125 C 2.960938 -2.625 3.242188 -2.21875 3.609375 -1.90625 C 3.984375 -1.59375 4.429688 -1.4375 4.953125 -1.4375 C 5.316406 -1.4375 5.628906 -1.535156 5.890625 -1.734375 C 6.160156 -1.929688 6.378906 -2.195312 6.546875 -2.53125 C 6.710938 -2.875 6.835938 -3.242188 6.921875 -3.640625 C 7.003906 -4.035156 7.046875 -4.429688 7.046875 -4.828125 C 7.046875 -5.515625 6.929688 -6.097656 6.703125 -6.578125 C 6.484375 -7.066406 6.1875 -7.441406 5.8125 -7.703125 C 5.664062 -7.753906 5.519531 -7.785156 5.375 -7.796875 C 5.226562 -7.816406 5.082031 -7.828125 4.9375 -7.828125 C 4.550781 -7.828125 4.203125 -7.742188 3.890625 -7.578125 C 3.585938 -7.410156 3.328125 -7.179688 3.109375 -6.890625 C 2.898438 -6.609375 2.742188 -6.285156 2.640625 -5.921875 C 2.535156 -5.554688 2.484375 -5.164062 2.484375 -4.75 Z M 2.484375 -4.75 "/></g></g></g><g fill="#ffffff" fill-opacity="1"><g transform="translate(119.480706, 49.460866)"><g><path d="M 1.75 -8.9375 C 1.78125 -9.132812 1.867188 -9.273438 2.015625 -9.359375 C 2.160156 -9.441406 2.320312 -9.484375 2.5 -9.484375 C 2.695312 -9.484375 2.875 -9.414062 3.03125 -9.28125 C 3.1875 -9.144531 3.265625 -8.984375 3.265625 -8.796875 C 3.265625 -8.742188 3.253906 -8.625 3.234375 -8.4375 C 3.210938 -8.257812 3.1875 -8.0625 3.15625 -7.84375 C 3.132812 -7.625 3.117188 -7.425781 3.109375 -7.25 C 3.335938 -7.65625 3.597656 -8.019531 3.890625 -8.34375 C 4.179688 -8.664062 4.507812 -8.914062 4.875 -9.09375 C 5.238281 -9.28125 5.632812 -9.375 6.0625 -9.375 C 7.082031 -9.375 7.835938 -9.007812 8.328125 -8.28125 C 8.828125 -7.5625 9.078125 -6.609375 9.078125 -5.421875 C 9.078125 -4.835938 9.035156 -4.269531 8.953125 -3.71875 C 8.878906 -3.164062 8.800781 -2.625 8.71875 -2.09375 C 8.632812 -1.5625 8.59375 -1.035156 8.59375 -0.515625 C 8.59375 -0.296875 8.515625 -0.125 8.359375 0 C 8.210938 0.125 8.03125 0.1875 7.8125 0.1875 C 7.59375 0.1875 7.40625 0.125 7.25 0 C 7.101562 -0.125 7.03125 -0.300781 7.03125 -0.53125 C 7.03125 -1.09375 7.070312 -1.628906 7.15625 -2.140625 C 7.238281 -2.648438 7.316406 -3.164062 7.390625 -3.6875 C 7.472656 -4.21875 7.515625 -4.765625 7.515625 -5.328125 C 7.515625 -6.015625 7.441406 -6.539062 7.296875 -6.90625 C 7.160156 -7.269531 6.96875 -7.519531 6.71875 -7.65625 C 6.476562 -7.800781 6.203125 -7.875 5.890625 -7.875 C 5.503906 -7.875 5.15625 -7.738281 4.84375 -7.46875 C 4.539062 -7.207031 4.269531 -6.875 4.03125 -6.46875 C 3.800781 -6.0625 3.609375 -5.632812 3.453125 -5.1875 C 3.304688 -4.75 3.1875 -4.359375 3.09375 -4.015625 C 3.09375 -3.390625 3.085938 -2.773438 3.078125 -2.171875 C 3.066406 -1.578125 3.046875 -1.019531 3.015625 -0.5 C 2.992188 -0.300781 2.910156 -0.132812 2.765625 0 C 2.617188 0.132812 2.425781 0.203125 2.1875 0.203125 C 1.957031 0.203125 1.78125 0.132812 1.65625 0 C 1.53125 -0.125 1.441406 -0.296875 1.390625 -0.515625 C 1.347656 -0.734375 1.328125 -0.96875 1.328125 -1.21875 C 1.328125 -1.613281 1.34375 -2.03125 1.375 -2.46875 C 1.414062 -2.914062 1.484375 -3.351562 1.578125 -3.78125 C 1.566406 -4.425781 1.5625 -5.003906 1.5625 -5.515625 C 1.5625 -6.035156 1.5625 -6.492188 1.5625 -6.890625 C 1.570312 -7.296875 1.585938 -7.664062 1.609375 -8 C 1.640625 -8.332031 1.6875 -8.644531 1.75 -8.9375 Z M 1.75 -8.9375 "/></g></g></g><g fill="#ffffff" fill-opacity="1"><g transform="translate(129.755635, 49.460866)"><g><path d="M 0.796875 -4.140625 C 0.796875 -4.847656 0.921875 -5.515625 1.171875 -6.140625 C 1.429688 -6.773438 1.773438 -7.332031 2.203125 -7.8125 C 2.640625 -8.300781 3.140625 -8.6875 3.703125 -8.96875 C 4.265625 -9.25 4.851562 -9.390625 5.46875 -9.390625 C 5.75 -9.390625 6.023438 -9.359375 6.296875 -9.296875 C 6.578125 -9.234375 6.847656 -9.125 7.109375 -8.96875 C 7.171875 -9.132812 7.265625 -9.242188 7.390625 -9.296875 C 7.515625 -9.347656 7.632812 -9.375 7.75 -9.375 C 7.96875 -9.375 8.148438 -9.320312 8.296875 -9.21875 C 8.441406 -9.125 8.515625 -8.960938 8.515625 -8.734375 L 8.515625 -8.125 C 8.566406 -8.039062 8.601562 -7.960938 8.625 -7.890625 C 8.65625 -7.816406 8.671875 -7.734375 8.671875 -7.640625 C 8.671875 -7.460938 8.613281 -7.300781 8.5 -7.15625 L 8.5 -6.703125 C 8.5 -6.265625 8.5 -5.828125 8.5 -5.390625 C 8.507812 -4.953125 8.515625 -4.5 8.515625 -4.03125 C 8.515625 -3.414062 8.492188 -2.796875 8.453125 -2.171875 C 8.421875 -1.546875 8.378906 -0.925781 8.328125 -0.3125 C 8.234375 0.695312 8.035156 1.582031 7.734375 2.34375 C 7.441406 3.101562 7.046875 3.695312 6.546875 4.125 C 6.046875 4.550781 5.441406 4.765625 4.734375 4.765625 C 4.421875 4.765625 4.085938 4.71875 3.734375 4.625 C 3.390625 4.53125 3.019531 4.378906 2.625 4.171875 C 2.238281 3.972656 1.84375 3.722656 1.4375 3.421875 C 1.332031 3.335938 1.25 3.242188 1.1875 3.140625 C 1.125 3.035156 1.09375 2.929688 1.09375 2.828125 C 1.09375 2.710938 1.117188 2.597656 1.171875 2.484375 C 1.234375 2.367188 1.316406 2.265625 1.421875 2.171875 C 1.523438 2.085938 1.648438 2.046875 1.796875 2.046875 C 1.910156 2.046875 2.03125 2.070312 2.15625 2.125 C 2.289062 2.175781 2.414062 2.25 2.53125 2.34375 C 2.75 2.488281 2.976562 2.640625 3.21875 2.796875 C 3.46875 2.953125 3.71875 3.078125 3.96875 3.171875 C 4.226562 3.265625 4.484375 3.3125 4.734375 3.3125 C 5.117188 3.3125 5.4375 3.175781 5.6875 2.90625 C 5.9375 2.632812 6.140625 2.289062 6.296875 1.875 C 6.453125 1.46875 6.5625 1.0625 6.625 0.65625 C 6.6875 0.3125 6.734375 0.03125 6.765625 -0.1875 C 6.804688 -0.414062 6.835938 -0.625 6.859375 -0.8125 C 6.878906 -1 6.898438 -1.210938 6.921875 -1.453125 C 6.628906 -0.921875 6.269531 -0.535156 5.84375 -0.296875 C 5.414062 -0.0546875 4.945312 0.0625 4.4375 0.0625 C 3.738281 0.0625 3.113281 -0.125 2.5625 -0.5 C 2.019531 -0.882812 1.585938 -1.394531 1.265625 -2.03125 C 0.953125 -2.664062 0.796875 -3.367188 0.796875 -4.140625 Z M 4.515625 -1.375 C 4.929688 -1.375 5.28125 -1.5 5.5625 -1.75 C 5.84375 -2 6.070312 -2.359375 6.25 -2.828125 C 6.425781 -3.296875 6.570312 -3.859375 6.6875 -4.515625 C 6.707031 -4.679688 6.726562 -4.910156 6.75 -5.203125 C 6.769531 -5.503906 6.789062 -5.8125 6.8125 -6.125 C 6.832031 -6.445312 6.847656 -6.726562 6.859375 -6.96875 C 6.867188 -7.21875 6.875 -7.378906 6.875 -7.453125 C 6.65625 -7.617188 6.414062 -7.742188 6.15625 -7.828125 C 5.894531 -7.910156 5.664062 -7.953125 5.46875 -7.953125 C 5.050781 -7.953125 4.65625 -7.847656 4.28125 -7.640625 C 3.90625 -7.429688 3.578125 -7.144531 3.296875 -6.78125 C 3.015625 -6.414062 2.789062 -6 2.625 -5.53125 C 2.46875 -5.070312 2.390625 -4.582031 2.390625 -4.0625 C 2.390625 -3.550781 2.484375 -3.085938 2.671875 -2.671875 C 2.867188 -2.265625 3.128906 -1.945312 3.453125 -1.71875 C 3.785156 -1.488281 4.140625 -1.375 4.515625 -1.375 Z M 4.515625 -1.375 "/></g></g></g><g fill="#ffffff" fill-opacity="1"><g transform="translate(139.603153, 49.460866)"><g><path d="M 6.984375 -8.046875 C 7.066406 -7.960938 7.117188 -7.875 7.140625 -7.78125 C 7.160156 -7.6875 7.171875 -7.597656 7.171875 -7.515625 C 7.171875 -7.378906 7.132812 -7.253906 7.0625 -7.140625 C 6.988281 -7.035156 6.894531 -6.953125 6.78125 -6.890625 C 6.664062 -6.828125 6.546875 -6.796875 6.421875 -6.796875 C 6.304688 -6.796875 6.203125 -6.820312 6.109375 -6.875 C 6.023438 -6.9375 5.941406 -7.007812 5.859375 -7.09375 C 5.742188 -7.257812 5.550781 -7.425781 5.28125 -7.59375 C 5.019531 -7.769531 4.691406 -7.859375 4.296875 -7.859375 C 3.910156 -7.859375 3.582031 -7.765625 3.3125 -7.578125 C 3.039062 -7.398438 2.90625 -7.164062 2.90625 -6.875 C 2.90625 -6.519531 3.019531 -6.25 3.25 -6.0625 C 3.488281 -5.882812 3.867188 -5.664062 4.390625 -5.40625 C 4.785156 -5.207031 5.171875 -4.972656 5.546875 -4.703125 C 5.921875 -4.441406 6.226562 -4.117188 6.46875 -3.734375 C 6.71875 -3.347656 6.84375 -2.890625 6.84375 -2.359375 C 6.84375 -1.898438 6.726562 -1.484375 6.5 -1.109375 C 6.28125 -0.734375 5.96875 -0.429688 5.5625 -0.203125 C 5.15625 0.0234375 4.675781 0.140625 4.125 0.140625 C 3.488281 0.140625 2.863281 0 2.25 -0.28125 C 1.632812 -0.5625 1.113281 -0.890625 0.6875 -1.265625 C 0.601562 -1.335938 0.546875 -1.414062 0.515625 -1.5 C 0.484375 -1.582031 0.46875 -1.664062 0.46875 -1.75 C 0.46875 -1.945312 0.539062 -2.128906 0.6875 -2.296875 C 0.832031 -2.460938 1.003906 -2.546875 1.203125 -2.546875 C 1.253906 -2.546875 1.3125 -2.535156 1.375 -2.515625 C 1.4375 -2.492188 1.507812 -2.453125 1.59375 -2.390625 C 1.957031 -2.109375 2.351562 -1.851562 2.78125 -1.625 C 3.207031 -1.394531 3.613281 -1.28125 4 -1.28125 C 4.4375 -1.28125 4.753906 -1.378906 4.953125 -1.578125 C 5.148438 -1.773438 5.25 -2 5.25 -2.25 C 5.25 -2.664062 5.09375 -3.023438 4.78125 -3.328125 C 4.46875 -3.628906 4.0625 -3.890625 3.5625 -4.109375 C 3.03125 -4.347656 2.597656 -4.601562 2.265625 -4.875 C 1.929688 -5.144531 1.6875 -5.441406 1.53125 -5.765625 C 1.375 -6.085938 1.296875 -6.445312 1.296875 -6.84375 C 1.296875 -7.320312 1.4375 -7.742188 1.71875 -8.109375 C 2 -8.472656 2.363281 -8.753906 2.8125 -8.953125 C 3.269531 -9.160156 3.765625 -9.265625 4.296875 -9.265625 C 4.828125 -9.265625 5.335938 -9.15625 5.828125 -8.9375 C 6.316406 -8.726562 6.703125 -8.429688 6.984375 -8.046875 Z M 6.984375 -8.046875 "/></g></g></g><g fill="#ffffff" fill-opacity="1"><g transform="translate(147.39911, 49.460866)"><g><path d="M 1.765625 -13.34375 C 1.765625 -13.582031 1.835938 -13.757812 1.984375 -13.875 C 2.140625 -13.988281 2.320312 -14.046875 2.53125 -14.046875 C 2.75 -14.046875 2.929688 -13.984375 3.078125 -13.859375 C 3.222656 -13.742188 3.296875 -13.570312 3.296875 -13.34375 C 3.285156 -13.125 3.273438 -12.878906 3.265625 -12.609375 C 3.265625 -12.347656 3.257812 -12.015625 3.25 -11.609375 C 3.25 -11.210938 3.242188 -10.695312 3.234375 -10.0625 C 3.234375 -9.425781 3.226562 -8.617188 3.21875 -7.640625 C 3.46875 -7.972656 3.738281 -8.253906 4.03125 -8.484375 C 4.320312 -8.722656 4.632812 -8.90625 4.96875 -9.03125 C 5.300781 -9.15625 5.644531 -9.21875 6 -9.21875 C 6.59375 -9.21875 7.0625 -9.09375 7.40625 -8.84375 C 7.75 -8.59375 8 -8.269531 8.15625 -7.875 C 8.320312 -7.476562 8.429688 -7.054688 8.484375 -6.609375 C 8.535156 -6.171875 8.566406 -5.75 8.578125 -5.34375 C 8.597656 -4.414062 8.585938 -3.671875 8.546875 -3.109375 C 8.515625 -2.554688 8.5 -2.046875 8.5 -1.578125 C 8.5 -1.378906 8.503906 -1.191406 8.515625 -1.015625 C 8.523438 -0.835938 8.535156 -0.660156 8.546875 -0.484375 C 8.554688 -0.265625 8.484375 -0.0976562 8.328125 0.015625 C 8.179688 0.140625 7.992188 0.203125 7.765625 0.203125 C 7.546875 0.203125 7.363281 0.144531 7.21875 0.03125 C 7.082031 -0.0820312 7.003906 -0.257812 6.984375 -0.5 C 6.960938 -0.757812 6.953125 -1.078125 6.953125 -1.453125 C 6.953125 -1.828125 6.960938 -2.222656 6.984375 -2.640625 C 7.003906 -3.054688 7.019531 -3.457031 7.03125 -3.84375 C 7.039062 -4.238281 7.046875 -4.582031 7.046875 -4.875 C 7.046875 -5.957031 6.96875 -6.707031 6.8125 -7.125 C 6.65625 -7.539062 6.347656 -7.75 5.890625 -7.75 C 5.566406 -7.75 5.234375 -7.648438 4.890625 -7.453125 C 4.554688 -7.253906 4.242188 -6.953125 3.953125 -6.546875 C 3.660156 -6.148438 3.425781 -5.617188 3.25 -4.953125 C 3.195312 -4.222656 3.15625 -3.492188 3.125 -2.765625 C 3.101562 -2.046875 3.082031 -1.347656 3.0625 -0.671875 C 3.050781 -0.453125 2.96875 -0.273438 2.8125 -0.140625 C 2.65625 -0.015625 2.460938 0.046875 2.234375 0.046875 C 2.023438 0.046875 1.851562 -0.0195312 1.71875 -0.15625 C 1.582031 -0.289062 1.507812 -0.457031 1.5 -0.65625 C 1.488281 -0.925781 1.46875 -1.207031 1.4375 -1.5 C 1.414062 -1.789062 1.410156 -2.078125 1.421875 -2.359375 C 1.421875 -2.816406 1.445312 -3.269531 1.5 -3.71875 C 1.550781 -4.164062 1.617188 -4.609375 1.703125 -5.046875 C 1.703125 -6.234375 1.703125 -7.242188 1.703125 -8.078125 C 1.703125 -8.910156 1.703125 -9.613281 1.703125 -10.1875 C 1.703125 -10.757812 1.703125 -11.234375 1.703125 -11.609375 C 1.710938 -11.992188 1.722656 -12.316406 1.734375 -12.578125 C 1.742188 -12.847656 1.753906 -13.101562 1.765625 -13.34375 Z M 1.765625 -13.34375 "/></g></g></g><g fill="#ffffff" fill-opacity="1"><g transform="translate(157.349201, 49.460866)"><g><path d="M 1.78125 -8.5625 C 1.78125 -8.71875 1.816406 -8.847656 1.890625 -8.953125 C 1.960938 -9.054688 2.054688 -9.132812 2.171875 -9.1875 C 2.296875 -9.238281 2.421875 -9.265625 2.546875 -9.265625 C 2.773438 -9.265625 2.960938 -9.207031 3.109375 -9.09375 C 3.265625 -8.976562 3.34375 -8.800781 3.34375 -8.5625 C 3.34375 -7.738281 3.328125 -7.007812 3.296875 -6.375 C 3.273438 -5.738281 3.242188 -5.128906 3.203125 -4.546875 C 3.171875 -3.960938 3.140625 -3.347656 3.109375 -2.703125 C 3.085938 -2.066406 3.070312 -1.328125 3.0625 -0.484375 C 3.0625 -0.265625 2.984375 -0.0859375 2.828125 0.046875 C 2.679688 0.179688 2.503906 0.25 2.296875 0.25 C 2.066406 0.25 1.894531 0.195312 1.78125 0.09375 C 1.664062 0 1.585938 -0.125 1.546875 -0.28125 C 1.503906 -0.445312 1.484375 -0.613281 1.484375 -0.78125 C 1.484375 -0.882812 1.488281 -1.132812 1.5 -1.53125 C 1.519531 -1.9375 1.546875 -2.429688 1.578125 -3.015625 C 1.609375 -3.597656 1.640625 -4.222656 1.671875 -4.890625 C 1.703125 -5.554688 1.726562 -6.207031 1.75 -6.84375 C 1.769531 -7.488281 1.78125 -8.0625 1.78125 -8.5625 Z M 1.53125 -12.171875 C 1.53125 -12.367188 1.570312 -12.566406 1.65625 -12.765625 C 1.75 -12.960938 1.867188 -13.128906 2.015625 -13.265625 C 2.160156 -13.398438 2.332031 -13.46875 2.53125 -13.46875 C 2.894531 -13.46875 3.164062 -13.394531 3.34375 -13.25 C 3.519531 -13.101562 3.632812 -12.9375 3.6875 -12.75 C 3.75 -12.570312 3.78125 -12.429688 3.78125 -12.328125 C 3.78125 -12.015625 3.660156 -11.734375 3.421875 -11.484375 C 3.191406 -11.234375 2.914062 -11.109375 2.59375 -11.109375 C 2.3125 -11.109375 2.0625 -11.207031 1.84375 -11.40625 C 1.632812 -11.613281 1.53125 -11.867188 1.53125 -12.171875 Z M 1.53125 -12.171875 "/></g></g></g></svg>